<svg width="173" height="147" viewBox="0 0 173 147" fill="none" xmlns="http://www.w3.org/2000/svg">
<circle cx="123" cy="97" r="50" fill="#171E34"/>
<circle cx="123" cy="97" r="50" fill="#171E34"/>
<path d="M38.4998 62.5785C40.3581 68.7883 46.9273 72.3315 53.1371 70.4733C59.347 68.6151 62.8902 62.0458 61.0319 55.836C59.1737 49.6262 52.6045 46.083 46.3946 47.9412C40.1848 49.7994 36.6416 56.3686 38.4998 62.5785ZM56.5255 57.1845C57.6407 60.9113 55.5154 64.8517 51.7886 65.9669C48.0618 67.0821 44.1215 64.9568 43.0063 61.23C41.8911 57.5032 44.0163 53.5628 47.7431 52.4476C51.4699 51.3324 55.4103 53.4577 56.5255 57.1845ZM11.4634 28.9343C5.14093 30.8263 1.53909 37.5112 3.44991 43.8968C11.0706 66.9517 26.2093 82.7242 50.7758 93.0193C53.046 100.294 56.9976 107.051 62.2277 112.6C68.4479 119.194 76.169 123.6 82.8829 124.395C87.1074 124.893 91.4767 123.12 94.2891 119.769C96.8697 116.694 97.7271 112.848 96.6402 109.216L93.2137 97.7652C91.4256 91.7897 91.5836 86.7883 93.6804 82.9007C95.8373 78.9017 99.5589 76.2267 105.395 74.4804L116.846 71.0539C120.559 69.9427 123.484 66.9022 124.677 62.9166C125.441 60.3657 125.437 57.7449 124.725 55.3655C124.257 53.8018 123.488 52.3478 122.423 51.0855C118.076 45.9102 110.151 41.874 101.222 40.3039C93.7161 38.9804 85.8992 39.3899 78.5687 41.4902C56.4761 26.6152 34.9716 22.6314 11.4616 28.9447L11.4634 28.9343ZM90.6909 116.736C88.88 118.888 86.1033 120.029 83.4327 119.718C77.7833 119.052 71.1319 115.185 65.651 109.371C61.8025 105.289 58.7192 100.482 56.5899 95.286C57.3669 95.569 58.1529 95.8494 58.9511 96.1212C71.1846 100.331 85.2016 102.313 89.8431 102.893L92.1369 110.559C92.7626 112.65 92.233 114.9 90.6909 116.736ZM100.404 44.9233C108.278 46.3133 115.158 49.7441 118.818 54.0989C120.453 56.0352 120.959 58.8933 120.167 61.5609C119.417 64.0587 117.716 65.8737 115.494 66.5385L107.865 68.8215C104.899 65.1772 95.8647 54.4961 85.6473 46.6043C84.9831 46.0911 84.3171 45.5883 83.6524 45.09C89.1638 44.0152 94.8791 43.9498 100.404 44.9233ZM82.7788 50.3252C91.3566 56.9547 99.2823 65.9004 102.981 70.3026C96.5514 72.4279 92.1481 75.8273 89.5383 80.659C86.9741 85.4132 86.5871 91.2245 88.3774 97.9457C82.5983 97.1415 70.7219 95.1913 60.4762 91.6681C32.553 82.0682 15.8508 66.4198 7.9361 42.4807C6.78719 38.6413 8.97697 34.5883 12.7488 33.4596C37.1636 26.905 59.4142 32.2663 82.7801 50.3297L82.7788 50.3252ZM114.442 107.454C117.974 109.363 128.588 110.394 133.644 110.06C135.657 109.929 137.43 108.784 138.387 107.01C139.132 105.628 139.283 104.046 138.844 102.582C138.719 102.163 138.549 101.757 138.324 101.368C135.827 96.9597 129.135 88.6609 125.599 86.7535C122.834 85.2584 119.655 84.9381 116.645 85.8389C113.634 86.7397 111.155 88.7583 109.664 91.5218C106.682 97.0443 108.906 104.475 114.431 107.452L114.442 107.454ZM123.372 90.8961C125.662 92.1308 131.751 99.3037 134.237 103.691C134.499 104.157 134.36 104.577 134.248 104.777C134.137 104.982 133.873 105.331 133.334 105.365C128.302 105.697 118.964 104.549 116.674 103.314C115.017 102.421 113.806 100.932 113.265 99.125C112.724 97.318 112.92 95.4132 113.813 93.7517C114.705 92.0903 116.195 90.8834 118.002 90.3427C119.809 89.8019 121.714 89.9979 123.375 90.8902L123.372 90.8961Z" fill="black"/>
</svg>
