<svg width="100" height="100" viewBox="0 0 100 100" fill="none" xmlns="http://www.w3.org/2000/svg">
<circle cx="50" cy="50" r="50" fill="#171E34"/>
<path d="M57.0301 58.1679C57.8647 59.8609 59.16 61.284 60.7673 62.2736C62.3745 63.2632 64.2284 63.7792 66.1158 63.7622C69.9298 63.7622 72.3676 61.8552 72.3676 59.2173C72.3676 56.0608 69.8645 54.942 65.6626 53.0921L63.3595 52.1039C56.7157 49.2741 52.3015 45.7256 52.3015 38.2202C52.3136 36.5128 52.6809 34.8267 53.3798 33.2689C54.0788 31.7112 55.0943 30.3159 56.3617 29.1718C57.629 28.0277 59.1206 27.1598 60.7415 26.6234C62.3624 26.0869 64.0772 25.8935 65.7769 26.0556C68.4483 25.8631 71.1171 26.4633 73.4488 27.781C75.7806 29.0987 77.6716 31.0752 78.8848 33.463L71.7143 38.065C71.2437 36.8839 70.4248 35.8739 69.3665 35.1693C68.3081 34.4647 67.0604 34.0989 65.7892 34.1204C65.2354 34.0648 64.6761 34.1251 64.1469 34.2975C63.6177 34.4698 63.1302 34.7505 62.7154 35.1215C62.3006 35.4925 61.9675 35.9459 61.7375 36.4526C61.5074 36.9594 61.3853 37.5085 61.379 38.065C61.379 40.8295 63.09 41.9484 67.0428 43.6594L69.3459 44.6435C77.1698 48.0001 81.5962 51.422 81.5962 59.1112C81.5962 67.4047 75.0831 71.9455 66.3364 71.9455C62.9286 72.1628 59.5307 71.3893 56.5527 69.7185C53.5747 68.0476 51.1438 65.5507 49.5533 62.529L57.0301 58.1679ZM24.4972 58.9846C25.9428 61.549 27.2617 63.7214 30.4223 63.7214C33.4482 63.7214 35.3592 62.5372 35.3592 57.931V26.6028H44.5674V58.0454C44.7846 59.9097 44.5793 61.7991 43.9669 63.5733C43.3545 65.3475 42.3507 66.9612 41.0297 68.2947C39.7088 69.6282 38.1047 70.6472 36.3363 71.2764C34.568 71.9055 32.6807 72.1286 30.8143 71.9291C27.9315 72.0864 25.0687 71.3668 22.6028 69.8653C20.1369 68.3637 18.1836 66.1506 17 63.5172L24.4972 58.9846Z" fill="white"/>
</svg>
