<svg width="100" height="100" viewBox="0 0 100 100" fill="none" xmlns="http://www.w3.org/2000/svg">
<circle cx="50" cy="50" r="50" fill="#171E34"/>
<path d="M21 21L26.0526 78.2632L49.6316 85L73.2105 78.2632C74.8947 59.176 76.579 40.0872 78.2632 21H21ZM24.6776 24.3684H74.5855L70.0592 75.6612L49.6316 81.4967L29.2039 75.6612L24.6776 24.3684ZM37.0855 34.4737L35.4671 54.6842H57.3454L56.6546 63.1053L49.6316 64.148L42.6941 63.1053L42.3882 59.7368H35.8882L36.5461 68.1579L49.6151 71.5263L62.7007 68.1579L64.3684 47.9474H43.0461L43.5855 41.2105H57.6645L58.0526 44.5789H64.2829L63.1053 34.4737H37.0855Z" fill="white"/>
</svg>
